<?xml version="1.0" encoding="UTF-8" standalone="no"?>
<!-- Created with Inkscape (http://www.inkscape.org/) -->

<svg
   xmlns:dc="http://purl.org/dc/elements/1.1/"
   xmlns:cc="http://creativecommons.org/ns#"
   xmlns:rdf="http://www.w3.org/1999/02/22-rdf-syntax-ns#"
   xmlns:svg="http://www.w3.org/2000/svg"
   xmlns="http://www.w3.org/2000/svg"
   xmlns:sodipodi="http://sodipodi.sourceforge.net/DTD/sodipodi-0.dtd"
   xmlns:inkscape="http://www.inkscape.org/namespaces/inkscape"
   width="210mm"
   height="297mm"
   viewBox="0 0 210 297"
   id="svg2"
   version="1.1"
   inkscape:version="0.91+devel r14007"
   sodipodi:docname="liquidoc-logo.svg">
  <defs
     id="defs4">
    <inkscape:path-effect
       hide_knots="false"
       only_selected="false"
       ignore_radius_0="false"
       use_knot_distance="false"
       flexible="false"
       helper_size="0"
       chamfer_steps="1"
       radius="0"
       method="auto"
       unit="px"
       fillet_chamfer_values="-3.5527137e-14,1 | -2.5306943,1 | -2.936599,1 | 0,2 | 0,1"
       is_visible="true"
       id="path-effect3615"
       effect="fillet-chamfer" />
    <inkscape:path-effect
       hide_knots="false"
       only_selected="false"
       ignore_radius_0="false"
       use_knot_distance="false"
       flexible="false"
       helper_size="0"
       chamfer_steps="1"
       radius="0"
       method="auto"
       unit="px"
       fillet_chamfer_values="0,1 | -4.6772168,1 | -5.078121,1 | 0,2 | 0,1"
       is_visible="true"
       id="path-effect4214"
       effect="fillet-chamfer" />
    <inkscape:path-effect
       hide_knots="false"
       only_selected="false"
       ignore_radius_0="false"
       use_knot_distance="false"
       flexible="false"
       helper_size="0"
       chamfer_steps="1"
       radius="0"
       method="auto"
       unit="px"
       fillet_chamfer_values="0,1 | -4.6772168,1 | -5.078121,1 | 0,2 | 0,1"
       is_visible="true"
       id="path-effect4184"
       effect="fillet-chamfer" />
    <inkscape:path-effect
       effect="fillet-chamfer"
       id="path-effect4143"
       is_visible="true"
       fillet_chamfer_values="-3.5527137e-14,1 | -2.5306943,1 | -2.936599,1 | 0,2 | 0,1"
       unit="px"
       method="auto"
       radius="0"
       chamfer_steps="1"
       helper_size="0"
       flexible="false"
       use_knot_distance="false"
       ignore_radius_0="false"
       only_selected="false"
       hide_knots="false" />
    <inkscape:path-effect
       effect="fillet-chamfer"
       id="path-effect4143-4"
       is_visible="true"
       fillet_chamfer_values="0,1 | -17.67767,1 | -19.192898,1 | 0,2 | 0,1"
       unit="px"
       method="auto"
       radius="0"
       chamfer_steps="1"
       helper_size="0"
       flexible="false"
       use_knot_distance="false"
       ignore_radius_0="false"
       only_selected="false"
       hide_knots="false" />
  </defs>
  <sodipodi:namedview
     id="base"
     pagecolor="#ffffff"
     bordercolor="#666666"
     borderopacity="1.0"
     inkscape:pageopacity="0.0"
     inkscape:pageshadow="2"
     inkscape:zoom="0.49497475"
     inkscape:cx="708.34257"
     inkscape:cy="763.15473"
     inkscape:document-units="mm"
     inkscape:current-layer="layer1"
     showgrid="false"
     inkscape:object-nodes="true"
     inkscape:object-paths="true"
     inkscape:window-width="1438"
     inkscape:window-height="879"
     inkscape:window-x="0"
     inkscape:window-y="19"
     inkscape:window-maximized="1" />
  <metadata
     id="metadata7">
    <rdf:RDF>
      <cc:Work
         rdf:about="">
        <dc:format>image/svg+xml</dc:format>
        <dc:type
           rdf:resource="http://purl.org/dc/dcmitype/StillImage" />
        <dc:title />
      </cc:Work>
    </rdf:RDF>
  </metadata>
  <g
     inkscape:label="Layer 1"
     inkscape:groupmode="layer"
     id="layer1">
    <rect
       style="color:#000000;clip-rule:nonzero;display:inline;overflow:visible;visibility:visible;opacity:1;isolation:auto;mix-blend-mode:normal;color-interpolation:sRGB;color-interpolation-filters:linearRGB;solid-color:#000000;solid-opacity:1;fill:#ffffff;fill-opacity:1;fill-rule:nonzero;stroke:none;stroke-width:1.44192481;stroke-linecap:round;stroke-linejoin:round;stroke-miterlimit:4;stroke-dasharray:none;stroke-dashoffset:0;stroke-opacity:1;marker:none;color-rendering:auto;image-rendering:auto;shape-rendering:auto;text-rendering:auto;enable-background:accumulate"
       id="rect3411"
       width="106.37328"
       height="39.021351"
       x="21.916101"
       y="56.190155" />
    <rect
       y="68.576576"
       x="36.458942"
       height="4.5538502"
       width="14.099579"
       id="rect4300"
       style="color:#000000;clip-rule:nonzero;display:inline;overflow:visible;visibility:visible;opacity:1;isolation:auto;mix-blend-mode:normal;color-interpolation:sRGB;color-interpolation-filters:linearRGB;solid-color:#000000;solid-opacity:1;fill:#296b96;fill-opacity:1;fill-rule:nonzero;stroke:none;stroke-width:1.6232053;stroke-linecap:butt;stroke-linejoin:round;stroke-miterlimit:4;stroke-dasharray:none;stroke-dashoffset:0;stroke-opacity:1;marker:none;color-rendering:auto;image-rendering:auto;shape-rendering:auto;text-rendering:auto;enable-background:accumulate" />
    <path
       style="fill:none;fill-rule:evenodd;stroke:#999999;stroke-width:1.6232053;stroke-linecap:butt;stroke-linejoin:round;stroke-miterlimit:4;stroke-dasharray:none;stroke-opacity:1"
       d="m 34.420884,63.667257 0,22.112876 a 2.5306943,2.5306943 45 0 0 2.530694,2.530694 l 12.938695,0 a 2.936599,2.936599 135 0 0 2.936599,-2.936599 l 0,-18.537051 3.272176,-3.16992 -21.678164,0 0,0 z"
       id="path4141"
       inkscape:connector-curvature="0"
       sodipodi:nodetypes="cccccc"
       inkscape:path-effect="#path-effect4143"
       inkscape:original-d="m 34.420884,63.667257 0,24.64357 18.405988,0 0,-21.47365 3.272176,-3.16992 z" />
    <path
       style="opacity:1;fill:none;fill-opacity:1;fill-rule:evenodd;stroke:#999999;stroke-width:1.6232053;stroke-linecap:butt;stroke-linejoin:round;stroke-miterlimit:4;stroke-dasharray:none;stroke-dashoffset:0;stroke-opacity:1"
       d="m 34.420884,69.444246 -5.843249,0 3.177644,11.859128 2.665605,0 z"
       id="path4145"
       inkscape:connector-curvature="0"
       sodipodi:nodetypes="ccccc" />
    <rect
       style="color:#000000;clip-rule:nonzero;display:inline;overflow:visible;visibility:visible;opacity:1;isolation:auto;mix-blend-mode:normal;color-interpolation:sRGB;color-interpolation-filters:linearRGB;solid-color:#000000;solid-opacity:1;fill:#296b96;fill-opacity:1;fill-rule:nonzero;stroke:none;stroke-width:1.6232053;stroke-linecap:butt;stroke-linejoin:round;stroke-miterlimit:4;stroke-dasharray:none;stroke-dashoffset:0;stroke-opacity:1;marker:none;color-rendering:auto;image-rendering:auto;shape-rendering:auto;text-rendering:auto;enable-background:accumulate"
       id="rect4164"
       width="14.099579"
       height="17.642553"
       x="36.458942"
       y="68.576576"
       rx="0.65074998"
       ry="0.65074998" />
    <path
       style="fill:none;fill-rule:evenodd;stroke:#ffffff;stroke-width:0.81160265;stroke-linecap:butt;stroke-linejoin:miter;stroke-miterlimit:4;stroke-dasharray:none;stroke-opacity:1"
       d="m 38.01351,70.601111 11.135055,0"
       id="path4166"
       inkscape:connector-curvature="0" />
    <path
       inkscape:connector-curvature="0"
       id="path4168"
       d="m 38.01351,72.553364 11.135055,0"
       style="fill:none;fill-rule:evenodd;stroke:#ffffff;stroke-width:0.81160265;stroke-linecap:butt;stroke-linejoin:miter;stroke-miterlimit:4;stroke-dasharray:none;stroke-opacity:1" />
    <path
       style="fill:none;fill-rule:evenodd;stroke:#ffffff;stroke-width:0.81160265;stroke-linecap:butt;stroke-linejoin:miter;stroke-miterlimit:4;stroke-dasharray:none;stroke-opacity:1"
       d="m 38.01351,74.505618 11.135055,0"
       id="path4170"
       inkscape:connector-curvature="0" />
    <path
       inkscape:connector-curvature="0"
       id="path4172"
       d="m 38.01351,76.457871 11.135055,0"
       style="fill:none;fill-rule:evenodd;stroke:#ffffff;stroke-width:0.81160265;stroke-linecap:butt;stroke-linejoin:miter;stroke-miterlimit:4;stroke-dasharray:none;stroke-opacity:1" />
    <path
       style="fill:none;fill-rule:evenodd;stroke:#ffffff;stroke-width:0.81160265;stroke-linecap:butt;stroke-linejoin:miter;stroke-miterlimit:4;stroke-dasharray:none;stroke-opacity:1"
       d="m 38.01351,78.410125 11.135055,0"
       id="path4174"
       inkscape:connector-curvature="0" />
    <path
       inkscape:connector-curvature="0"
       id="path4176"
       d="m 38.01351,80.362378 11.135055,0"
       style="fill:none;fill-rule:evenodd;stroke:#ffffff;stroke-width:0.81160265;stroke-linecap:butt;stroke-linejoin:miter;stroke-miterlimit:4;stroke-dasharray:none;stroke-opacity:1" />
    <path
       style="fill:none;fill-rule:evenodd;stroke:#ffffff;stroke-width:0.81160265;stroke-linecap:butt;stroke-linejoin:miter;stroke-miterlimit:4;stroke-dasharray:none;stroke-opacity:1"
       d="m 38.01351,82.314632 11.135055,0"
       id="path4178"
       inkscape:connector-curvature="0" />
    <path
       inkscape:connector-curvature="0"
       id="path4180"
       d="m 38.01351,84.266887 11.135055,0"
       style="fill:none;fill-rule:evenodd;stroke:#ffffff;stroke-width:0.81160265;stroke-linecap:butt;stroke-linejoin:miter;stroke-miterlimit:4;stroke-dasharray:none;stroke-opacity:1" />
    <path
       inkscape:original-d="m 269.49702,124.95121 0,45.54612 34.01786,0 0,-39.68749 6.04762,-5.85863 z"
       inkscape:path-effect="#path-effect4214"
       sodipodi:nodetypes="cccccc"
       inkscape:connector-curvature="0"
       id="path4212"
       d="m 269.49702,124.95121 0,40.8689 a 4.6772168,4.6772168 45 0 0 4.67722,4.67722 l 24.26252,0 a 5.078121,5.078121 135 0 0 5.07812,-5.07812 l 0,-34.60937 6.04762,-5.85863 -40.06548,0 z"
       style="fill:none;fill-rule:evenodd;stroke:#999999;stroke-width:3;stroke-linecap:butt;stroke-linejoin:round;stroke-miterlimit:4;stroke-dasharray:none;stroke-opacity:1" />
    <path
       sodipodi:nodetypes="ccccc"
       inkscape:connector-curvature="0"
       id="path4216"
       d="m 269.49702,135.62821 -10.79946,0 5.87291,21.91798 4.92655,0 z"
       style="opacity:1;fill:none;fill-opacity:1;fill-rule:evenodd;stroke:#999999;stroke-width:3;stroke-linecap:butt;stroke-linejoin:round;stroke-miterlimit:4;stroke-dasharray:none;stroke-dashoffset:0;stroke-opacity:1" />
    <rect
       ry="1.2027129"
       rx="1.2027129"
       y="134.0246"
       x="273.26376"
       height="32.60688"
       width="26.058773"
       id="rect4218"
       style="color:#000000;clip-rule:nonzero;display:inline;overflow:visible;visibility:visible;opacity:1;isolation:auto;mix-blend-mode:normal;color-interpolation:sRGB;color-interpolation-filters:linearRGB;solid-color:#000000;solid-opacity:1;fill:#296b96;fill-opacity:1;fill-rule:nonzero;stroke:none;stroke-width:3;stroke-linecap:butt;stroke-linejoin:round;stroke-miterlimit:4;stroke-dasharray:none;stroke-dashoffset:0;stroke-opacity:1;marker:none;color-rendering:auto;image-rendering:auto;shape-rendering:auto;text-rendering:auto;enable-background:accumulate" />
    <path
       style="fill:none;fill-rule:evenodd;stroke:#ffffff;stroke-width:1.5;stroke-linecap:round;stroke-linejoin:miter;stroke-miterlimit:4;stroke-dasharray:none;stroke-opacity:1"
       d="m 276.1369,137.76632 4.69941,0"
       id="path4240"
       inkscape:connector-curvature="0" />
    <path
       style="fill:none;fill-rule:evenodd;stroke:#ffffff;stroke-width:1.5;stroke-linecap:round;stroke-linejoin:miter;stroke-miterlimit:4;stroke-dasharray:none;stroke-opacity:1"
       d="m 284.61607,137.76632 12.10058,0"
       id="path4220"
       inkscape:connector-curvature="0" />
    <path
       style="fill:none;fill-rule:evenodd;stroke:#ffffff;stroke-width:1.5;stroke-linecap:round;stroke-linejoin:miter;stroke-miterlimit:4;stroke-dasharray:none;stroke-opacity:1"
       d="m 276.1369,141.37447 11.40849,0"
       id="path4250"
       inkscape:connector-curvature="0" />
    <path
       style="fill:none;fill-rule:evenodd;stroke:#ffffff;stroke-width:1.5;stroke-linecap:round;stroke-linejoin:miter;stroke-miterlimit:4;stroke-dasharray:none;stroke-opacity:1"
       d="m 293.6875,141.37447 3.02915,0"
       id="path4222"
       inkscape:connector-curvature="0" />
    <path
       style="fill:none;fill-rule:evenodd;stroke:#ffffff;stroke-width:1.5;stroke-linecap:round;stroke-linejoin:miter;stroke-miterlimit:4;stroke-dasharray:none;stroke-opacity:1"
       d="m 276.1369,144.98261 7.25075,0"
       id="path4258"
       inkscape:connector-curvature="0" />
    <path
       style="fill:none;fill-rule:evenodd;stroke:#ffffff;stroke-width:1.5;stroke-linecap:round;stroke-linejoin:miter;stroke-miterlimit:4;stroke-dasharray:none;stroke-opacity:1"
       d="m 286.60045,144.98261 10.1162,0"
       id="path4224"
       inkscape:connector-curvature="0" />
    <path
       style="fill:none;fill-rule:evenodd;stroke:#ffffff;stroke-width:1.5;stroke-linecap:round;stroke-linejoin:miter;stroke-miterlimit:4;stroke-dasharray:none;stroke-opacity:1"
       d="m 276.1369,148.59076 1.95908,0"
       id="path4266"
       inkscape:connector-curvature="0" />
    <path
       style="fill:none;fill-rule:evenodd;stroke:#ffffff;stroke-width:1.5;stroke-linecap:round;stroke-linejoin:miter;stroke-miterlimit:4;stroke-dasharray:none;stroke-opacity:1"
       d="m 281.40327,148.59076 15.31338,0"
       id="path4226"
       inkscape:connector-curvature="0" />
    <path
       style="fill:none;fill-rule:evenodd;stroke:#ffffff;stroke-width:1.5;stroke-linecap:round;stroke-linejoin:miter;stroke-miterlimit:4;stroke-dasharray:none;stroke-opacity:1"
       d="m 276.1369,152.1989 4.22694,0"
       id="path4272"
       inkscape:connector-curvature="0" />
    <path
       style="fill:none;fill-rule:evenodd;stroke:#ffffff;stroke-width:1.5;stroke-linecap:round;stroke-linejoin:miter;stroke-miterlimit:4;stroke-dasharray:none;stroke-opacity:1"
       d="m 284.71057,152.1989 12.00608,0"
       id="path4228"
       inkscape:connector-curvature="0" />
    <path
       style="fill:none;fill-rule:evenodd;stroke:#ffffff;stroke-width:1.5;stroke-linecap:round;stroke-linejoin:miter;stroke-miterlimit:4;stroke-dasharray:none;stroke-opacity:1"
       d="m 276.1369,155.80705 14.62128,0"
       id="path4278"
       inkscape:connector-curvature="0" />
    <path
       style="fill:none;fill-rule:evenodd;stroke:#ffffff;stroke-width:1.5;stroke-linecap:round;stroke-linejoin:miter;stroke-miterlimit:4;stroke-dasharray:none;stroke-opacity:1"
       d="m 294.82143,155.80705 1.89522,0"
       id="path4230"
       inkscape:connector-curvature="0" />
    <path
       style="fill:none;fill-rule:evenodd;stroke:#ffffff;stroke-width:1.5;stroke-linecap:round;stroke-linejoin:miter;stroke-miterlimit:4;stroke-dasharray:none;stroke-opacity:1"
       d="m 276.1369,159.41519 8.47917,0"
       id="path4284"
       inkscape:connector-curvature="0" />
    <path
       style="fill:none;fill-rule:evenodd;stroke:#ffffff;stroke-width:1.5;stroke-linecap:round;stroke-linejoin:miter;stroke-miterlimit:4;stroke-dasharray:none;stroke-opacity:1"
       d="m 289.52976,159.41519 7.18689,0"
       id="path4232"
       inkscape:connector-curvature="0" />
    <path
       style="fill:none;fill-rule:evenodd;stroke:#ffffff;stroke-width:1.5;stroke-linecap:round;stroke-linejoin:miter;stroke-miterlimit:4;stroke-dasharray:none;stroke-opacity:1"
       d="m 276.1369,163.02334 4.03795,0"
       id="path4290"
       inkscape:connector-curvature="0" />
    <path
       style="fill:none;fill-rule:evenodd;stroke:#ffffff;stroke-width:1.5;stroke-linecap:round;stroke-linejoin:miter;stroke-miterlimit:4;stroke-dasharray:none;stroke-opacity:1"
       d="m 281.78125,163.02334 14.9354,0"
       id="path4234"
       inkscape:connector-curvature="0" />
    <path
       style="fill:none;fill-rule:evenodd;stroke:#ff8080;stroke-width:1.5;stroke-linecap:round;stroke-linejoin:miter;stroke-miterlimit:4;stroke-dasharray:none;stroke-opacity:1"
       d="m 280.83631,137.76632 3.77976,0"
       id="path4238"
       inkscape:connector-curvature="0" />
    <path
       style="fill:none;fill-rule:evenodd;stroke:#deaa87;stroke-width:1.5;stroke-linecap:round;stroke-linejoin:miter;stroke-miterlimit:4;stroke-dasharray:none;stroke-opacity:1"
       d="m 287.54539,141.37447 6.14211,0"
       id="path4248"
       inkscape:connector-curvature="0" />
    <path
       style="fill:none;fill-rule:evenodd;stroke:#ffdd55;stroke-width:1.5;stroke-linecap:round;stroke-linejoin:miter;stroke-miterlimit:4;stroke-dasharray:none;stroke-opacity:1"
       d="m 283.38765,144.98261 3.2128,0"
       id="path4256"
       inkscape:connector-curvature="0" />
    <path
       style="fill:none;fill-rule:evenodd;stroke:#80ff80;stroke-width:1.5;stroke-linecap:round;stroke-linejoin:miter;stroke-miterlimit:4;stroke-dasharray:none;stroke-opacity:1"
       d="m 278.09598,148.59076 3.30729,0"
       id="path4262"
       inkscape:connector-curvature="0" />
    <path
       style="fill:none;fill-rule:evenodd;stroke:#55ffdd;stroke-width:1.5;stroke-linecap:round;stroke-linejoin:miter;stroke-miterlimit:4;stroke-dasharray:none;stroke-opacity:1"
       d="m 280.36384,152.1989 4.34673,0"
       id="path4270"
       inkscape:connector-curvature="0" />
    <path
       style="fill:none;fill-rule:evenodd;stroke:#afafe9;stroke-width:1.5;stroke-linecap:round;stroke-linejoin:miter;stroke-miterlimit:4;stroke-dasharray:none;stroke-opacity:1"
       d="m 290.75818,155.80705 4.06325,0"
       id="path4276"
       inkscape:connector-curvature="0" />
    <path
       style="fill:none;fill-rule:evenodd;stroke:#c6afe9;stroke-width:1.5;stroke-linecap:round;stroke-linejoin:miter;stroke-miterlimit:4;stroke-dasharray:none;stroke-opacity:1"
       d="m 284.61607,159.41519 4.91369,0"
       id="path4282"
       inkscape:connector-curvature="0" />
    <path
       style="fill:none;fill-rule:evenodd;stroke:#ff80e5;stroke-width:1.5;stroke-linecap:round;stroke-linejoin:miter;stroke-miterlimit:4;stroke-dasharray:none;stroke-opacity:1"
       d="m 280.17485,163.02334 1.6064,0"
       id="path4288"
       inkscape:connector-curvature="0" />
    <flowRoot
       xml:space="preserve"
       id="flowRoot4292"
       style="fill:black;stroke:none;stroke-opacity:1;stroke-width:1px;stroke-linejoin:miter;stroke-linecap:butt;fill-opacity:1;font-family:Lato;font-style:normal;font-weight:normal;font-size:4px;line-height:125%;letter-spacing:0px;word-spacing:0px;-inkscape-font-specification:Lato;font-stretch:normal;font-variant:normal"><flowRegion
         id="flowRegion4294"><rect
           id="rect4296"
           width="282.85715"
           height="8.5714283"
           x="330"
           y="642.51971" /></flowRegion><flowPara
         id="flowPara4298" /></flowRoot>    <flowRoot
       style="font-style:normal;font-variant:normal;font-weight:normal;font-stretch:normal;font-size:20.86856842px;line-height:125%;font-family:Gidole;-inkscape-font-specification:'Gidole, Normal';text-align:start;letter-spacing:-1.05833328px;word-spacing:0px;writing-mode:lr-tb;text-anchor:start;fill:#296b96;fill-opacity:1;stroke:none;stroke-width:0.21738167px;stroke-linecap:butt;stroke-linejoin:miter;stroke-opacity:1"
       id="flowRoot4310"
       xml:space="preserve"
       transform="matrix(0.98843535,0,0,0.98843535,1.2437925,-1.1130849)"><flowRegion
         style="font-style:normal;font-variant:normal;font-weight:normal;font-stretch:normal;font-size:20.86856842px;line-height:125%;font-family:Gidole;-inkscape-font-specification:'Gidole, Normal';text-align:start;letter-spacing:-1.05833328px;writing-mode:lr-tb;text-anchor:start;fill:#296b96;fill-opacity:1;stroke-width:0.21738167px"
         id="flowRegion4312"><rect
           style="font-style:normal;font-variant:normal;font-weight:normal;font-stretch:normal;font-size:20.86856842px;line-height:125%;font-family:Gidole;-inkscape-font-specification:'Gidole, Normal';text-align:start;letter-spacing:-1.05833328px;writing-mode:lr-tb;text-anchor:start;fill:#296b96;fill-opacity:1;stroke-width:0.04725479px"
           y="67.963455"
           x="57.529495"
           height="31.365074"
           width="96.890121"
           id="rect4314" /></flowRegion><flowPara
         style="font-style:normal;font-variant:normal;font-weight:normal;font-stretch:normal;font-size:20.86856842px;line-height:125%;font-family:Gidole;-inkscape-font-specification:'Gidole, Normal';text-align:start;letter-spacing:-1.07071579px;writing-mode:lr-tb;text-anchor:start;fill:#296b96;fill-opacity:1;stroke-width:0.21738167px"
         id="flowPara4316"><flowSpan
   style="-inkscape-font-specification:'Gidolinya, Normal';font-family:Gidolinya;font-weight:normal;font-style:normal;font-stretch:normal;font-variant:normal;font-size:20.86860783px;text-anchor:start;text-align:start;writing-mode:lr;line-height:125%;letter-spacing:-1.07071579px"
   id="flowSpan3409">L</flowSpan>iquidoc</flowPara></flowRoot>    <rect
       y="130.75835"
       x="21.916101"
       height="39.021351"
       width="106.37328"
       id="rect3609"
       style="color:#000000;clip-rule:nonzero;display:inline;overflow:visible;visibility:visible;opacity:1;isolation:auto;mix-blend-mode:normal;color-interpolation:sRGB;color-interpolation-filters:linearRGB;solid-color:#000000;solid-opacity:1;fill:#ffffff;fill-opacity:1;fill-rule:nonzero;stroke:none;stroke-width:1.44192481;stroke-linecap:round;stroke-linejoin:round;stroke-miterlimit:4;stroke-dasharray:none;stroke-dashoffset:0;stroke-opacity:1;marker:none;color-rendering:auto;image-rendering:auto;shape-rendering:auto;text-rendering:auto;enable-background:accumulate" />
    <rect
       style="color:#000000;clip-rule:nonzero;display:inline;overflow:visible;visibility:visible;opacity:1;isolation:auto;mix-blend-mode:normal;color-interpolation:sRGB;color-interpolation-filters:linearRGB;solid-color:#000000;solid-opacity:1;fill:#296b96;fill-opacity:1;fill-rule:nonzero;stroke:none;stroke-width:1.6232053;stroke-linecap:butt;stroke-linejoin:round;stroke-miterlimit:4;stroke-dasharray:none;stroke-dashoffset:0;stroke-opacity:1;marker:none;color-rendering:auto;image-rendering:auto;shape-rendering:auto;text-rendering:auto;enable-background:accumulate"
       id="rect3611"
       width="14.099579"
       height="4.5538502"
       x="36.458942"
       y="143.14478" />
    <path
       style="fill:none;fill-rule:evenodd;stroke:#999999;stroke-width:1.6232053;stroke-linecap:butt;stroke-linejoin:round;stroke-miterlimit:4;stroke-dasharray:none;stroke-opacity:1"
       d="m 34.420884,138.23546 0,22.11288 a 2.5306943,2.5306943 45 0 0 2.530694,2.53069 l 12.938695,0 a 2.936599,2.936599 135 0 0 2.936599,-2.9366 l 0,-18.53705 3.272176,-3.16992 -21.678164,0 0,0 z"
       id="path3613" />
    <path
       sodipodi:nodetypes="ccccc"
       inkscape:connector-curvature="0"
       id="path3617"
       d="m 34.420884,144.01244 -5.843249,0 3.177644,11.85913 2.665605,0 z"
       style="opacity:1;fill:none;fill-opacity:1;fill-rule:evenodd;stroke:#999999;stroke-width:1.6232053;stroke-linecap:butt;stroke-linejoin:round;stroke-miterlimit:4;stroke-dasharray:none;stroke-dashoffset:0;stroke-opacity:1" />
    <rect
       ry="0.65074998"
       rx="0.65074998"
       y="143.14478"
       x="36.458942"
       height="17.642553"
       width="14.099579"
       id="rect3619"
       style="color:#000000;clip-rule:nonzero;display:inline;overflow:visible;visibility:visible;opacity:1;isolation:auto;mix-blend-mode:normal;color-interpolation:sRGB;color-interpolation-filters:linearRGB;solid-color:#000000;solid-opacity:1;fill:#296b96;fill-opacity:1;fill-rule:nonzero;stroke:none;stroke-width:1.6232053;stroke-linecap:butt;stroke-linejoin:round;stroke-miterlimit:4;stroke-dasharray:none;stroke-dashoffset:0;stroke-opacity:1;marker:none;color-rendering:auto;image-rendering:auto;shape-rendering:auto;text-rendering:auto;enable-background:accumulate" />
    <path
       inkscape:connector-curvature="0"
       id="path3621"
       d="m 38.01351,145.16931 11.135055,0"
       style="fill:none;fill-rule:evenodd;stroke:#ffffff;stroke-width:0.81160265;stroke-linecap:butt;stroke-linejoin:miter;stroke-miterlimit:4;stroke-dasharray:none;stroke-opacity:1" />
    <path
       style="fill:none;fill-rule:evenodd;stroke:#ffffff;stroke-width:0.81160265;stroke-linecap:butt;stroke-linejoin:miter;stroke-miterlimit:4;stroke-dasharray:none;stroke-opacity:1"
       d="m 38.01351,147.12156 11.135055,0"
       id="path3623"
       inkscape:connector-curvature="0" />
    <path
       inkscape:connector-curvature="0"
       id="path3625"
       d="m 38.01351,149.07382 11.135055,0"
       style="fill:none;fill-rule:evenodd;stroke:#ffffff;stroke-width:0.81160265;stroke-linecap:butt;stroke-linejoin:miter;stroke-miterlimit:4;stroke-dasharray:none;stroke-opacity:1" />
    <path
       style="fill:none;fill-rule:evenodd;stroke:#ffffff;stroke-width:0.81160265;stroke-linecap:butt;stroke-linejoin:miter;stroke-miterlimit:4;stroke-dasharray:none;stroke-opacity:1"
       d="m 38.01351,151.02607 11.135055,0"
       id="path3627"
       inkscape:connector-curvature="0" />
    <path
       inkscape:connector-curvature="0"
       id="path3629"
       d="m 38.01351,152.97832 11.135055,0"
       style="fill:none;fill-rule:evenodd;stroke:#ffffff;stroke-width:0.81160265;stroke-linecap:butt;stroke-linejoin:miter;stroke-miterlimit:4;stroke-dasharray:none;stroke-opacity:1" />
    <path
       style="fill:none;fill-rule:evenodd;stroke:#ffffff;stroke-width:0.81160265;stroke-linecap:butt;stroke-linejoin:miter;stroke-miterlimit:4;stroke-dasharray:none;stroke-opacity:1"
       d="m 38.01351,154.93058 11.135055,0"
       id="path3631"
       inkscape:connector-curvature="0" />
    <path
       inkscape:connector-curvature="0"
       id="path3633"
       d="m 38.01351,156.88283 11.135055,0"
       style="fill:none;fill-rule:evenodd;stroke:#ffffff;stroke-width:0.81160265;stroke-linecap:butt;stroke-linejoin:miter;stroke-miterlimit:4;stroke-dasharray:none;stroke-opacity:1" />
    <path
       style="fill:none;fill-rule:evenodd;stroke:#ffffff;stroke-width:0.81160265;stroke-linecap:butt;stroke-linejoin:miter;stroke-miterlimit:4;stroke-dasharray:none;stroke-opacity:1"
       d="m 38.01351,158.83509 11.135055,0"
       id="path3635"
       inkscape:connector-curvature="0" />
    <g
       style="font-style:normal;font-variant:normal;font-weight:normal;font-stretch:normal;font-size:20.6272316px;line-height:125%;font-family:Gidole;-inkscape-font-specification:'Gidole, Normal';text-align:start;letter-spacing:-1.04609406px;word-spacing:0px;writing-mode:lr-tb;text-anchor:start;fill:#296b96;fill-opacity:1;stroke:none;stroke-width:0.21486773px;stroke-linecap:butt;stroke-linejoin:miter;stroke-opacity:1"
       id="flowRoot3637">
      <path
         d="m 59.654467,147.59264 0,10.54054 c 0,0.9901 0,1.8977 0.825091,2.61966 0.6807,0.57756 1.505791,0.57756 2.41339,0.57756 l 3.981064,0 0,-1.44391 -3.981064,0 c -0.763209,0 -1.113872,0 -1.361399,-0.18564 -0.350664,-0.26816 -0.350664,-0.72196 -0.350664,-1.56767 l 0,-10.54054 -1.526418,0 z"
         style="font-style:normal;font-variant:normal;font-weight:normal;font-stretch:normal;font-size:20.62726974px;line-height:125%;font-family:Gidolinya;-inkscape-font-specification:'Gidolinya, Normal';text-align:start;letter-spacing:-1.05833328px;writing-mode:lr-tb;text-anchor:start;stroke-width:0.21486773px"
         id="path3649" />
      <path
         d="m 69.175663,146.87724 c -0.553954,0 -0.946757,0.3928 -0.946757,0.94676 0,0.55395 0.392803,0.94676 0.946757,0.94676 0.553954,0 0.946758,-0.39281 0.946758,-0.94676 0,-0.55396 -0.392804,-0.94676 -0.946758,-0.94676 z m 0.755392,14.45316 0,-10.89778 -1.510783,0 0,10.89778 1.510783,0 z"
         style="font-style:normal;font-variant:normal;font-weight:normal;font-stretch:normal;font-size:20.6272316px;line-height:125%;font-family:Gidole;-inkscape-font-specification:'Gidole, Normal';text-align:start;letter-spacing:-1.05833328px;writing-mode:lr-tb;text-anchor:start;fill:#296b96;fill-opacity:1;stroke-width:0.21486773px"
         id="path3651" />
      <path
         d="m 75.369091,150.27147 c -1.410064,0 -2.55826,0.67481 -3.172645,1.6115 -0.725176,1.11798 -0.805751,2.31653 -0.805751,3.99854 0,1.68201 0.08058,2.88056 0.805751,3.99854 0.614385,0.93669 1.762581,1.6115 3.172645,1.6115 1.248915,0 2.145313,-0.51366 2.870489,-1.31941 l 0,5.32803 1.510784,0 0,-15.06755 -1.510784,0 0,1.15826 c -0.725176,-0.80575 -1.621574,-1.31941 -2.870489,-1.31941 z m 0.201438,1.34963 c 0.936686,0 1.641718,0.40288 2.064738,0.98705 0.553954,0.76546 0.604313,1.84315 0.604313,3.27336 0,1.43021 -0.05036,2.5079 -0.604313,3.27336 -0.42302,0.58417 -1.128052,0.98705 -2.064738,0.98705 -0.936686,0 -1.641718,-0.40288 -2.064737,-0.98705 -0.553954,-0.76546 -0.604314,-1.84315 -0.604314,-3.27336 0,-1.43021 0.05036,-2.5079 0.604314,-3.27336 0.423019,-0.58417 1.128051,-0.98705 2.064737,-0.98705 z"
         style="font-style:normal;font-variant:normal;font-weight:normal;font-stretch:normal;font-size:20.6272316px;line-height:125%;font-family:Gidole;-inkscape-font-specification:'Gidole, Normal';text-align:start;letter-spacing:-1.05833328px;writing-mode:lr-tb;text-anchor:start;fill:#296b96;fill-opacity:1;stroke-width:0.21486773px"
         id="path3653" />
      <path
         d="m 81.421511,150.43262 0,6.39565 c 0,0.81582 0,1.56114 0.271941,2.29639 0.564026,1.53093 1.903588,2.36689 3.706456,2.36689 1.802868,0 3.14243,-0.83596 3.706456,-2.36689 0.271941,-0.73525 0.271941,-1.48057 0.271941,-2.29639 l 0,-6.39565 -1.510784,0 0,6.29493 c 0,0.87625 0,1.3597 -0.151078,1.82301 -0.342445,1.06762 -1.27913,1.59136 -2.316535,1.59136 -1.037405,0 -1.974091,-0.52374 -2.316535,-1.59136 -0.151078,-0.46331 -0.151078,-0.94676 -0.151078,-1.82301 l 0,-6.29493 -1.510784,0 z"
         style="font-style:normal;font-variant:normal;font-weight:normal;font-stretch:normal;font-size:20.6272316px;line-height:125%;font-family:Gidole;-inkscape-font-specification:'Gidole, Normal';text-align:start;letter-spacing:-1.05833328px;writing-mode:lr-tb;text-anchor:start;fill:#296b96;fill-opacity:1;stroke-width:0.21486773px"
         id="path3655" />
      <path
         d="m 91.865278,146.87724 c -0.553954,0 -0.946758,0.3928 -0.946758,0.94676 0,0.55395 0.392804,0.94676 0.946758,0.94676 0.553954,0 0.946757,-0.39281 0.946757,-0.94676 0,-0.55396 -0.392803,-0.94676 -0.946757,-0.94676 z m 0.755391,14.45316 0,-10.89778 -1.510783,0 0,10.89778 1.510783,0 z"
         style="font-style:normal;font-variant:normal;font-weight:normal;font-stretch:normal;font-size:20.6272316px;line-height:125%;font-family:Gidole;-inkscape-font-specification:'Gidole, Normal';text-align:start;letter-spacing:-1.05833328px;writing-mode:lr-tb;text-anchor:start;fill:#296b96;fill-opacity:1;stroke-width:0.21486773px"
         id="path3657" />
      <path
         d="m 98.058704,150.27147 c -1.410065,0 -2.55826,0.67481 -3.172646,1.6115 -0.725176,1.11798 -0.805751,2.31653 -0.805751,3.99854 0,1.68201 0.08057,2.88056 0.805751,3.99854 0.614386,0.93669 1.762581,1.6115 3.172646,1.6115 1.248914,0 2.145316,-0.51366 2.870486,-1.31941 l 0,1.15826 1.51079,0 0,-15.06755 -1.51079,0 0,5.32803 c -0.72517,-0.80575 -1.621572,-1.31941 -2.870486,-1.31941 z m 0.201438,1.34963 c 0.936685,0 1.641718,0.40288 2.064738,0.98705 0.55395,0.76546 0.60431,1.84315 0.60431,3.27336 0,1.43021 -0.0504,2.5079 -0.60431,3.27336 -0.42302,0.58417 -1.128053,0.98705 -2.064738,0.98705 -0.936686,0 -1.641719,-0.40288 -2.064738,-0.98705 -0.553954,-0.76546 -0.604313,-1.84315 -0.604313,-3.27336 0,-1.43021 0.05036,-2.5079 0.604313,-3.27336 0.423019,-0.58417 1.128052,-0.98705 2.064738,-0.98705 z"
         style="font-style:normal;font-variant:normal;font-weight:normal;font-stretch:normal;font-size:20.6272316px;line-height:125%;font-family:Gidole;-inkscape-font-specification:'Gidole, Normal';text-align:start;letter-spacing:-1.05833328px;writing-mode:lr-tb;text-anchor:start;fill:#296b96;fill-opacity:1;stroke-width:0.21486773px"
         id="path3659" />
      <path
         d="m 107.93844,151.6211 c 0.8964,0 1.59136,0.3223 2.00431,0.79568 0.76546,0.87625 0.76546,2.17553 0.76546,3.46473 0,1.2892 0,2.58848 -0.76546,3.46473 -0.41295,0.47338 -1.10791,0.79568 -2.00431,0.79568 -0.89639,0 -1.59135,-0.3223 -2.0043,-0.79568 -0.76547,-0.87625 -0.76547,-2.17553 -0.76547,-3.46473 0,-1.2892 0,-2.58848 0.76547,-3.46473 0.41295,-0.47338 1.10791,-0.79568 2.0043,-0.79568 z m 0,-1.34963 c -1.37985,0 -2.48775,0.53381 -3.1525,1.26905 -1.12805,1.24892 -1.12805,2.86042 -1.12805,4.34099 0,1.48057 0,3.09207 1.12805,4.34098 0.66475,0.73525 1.77265,1.26906 3.1525,1.26906 1.37985,0 2.48776,-0.53381 3.15251,-1.26906 1.12805,-1.24891 1.12805,-2.86041 1.12805,-4.34098 0,-1.48057 0,-3.09207 -1.12805,-4.34099 -0.66475,-0.73524 -1.77266,-1.26905 -3.15251,-1.26905 z"
         style="font-style:normal;font-variant:normal;font-weight:normal;font-stretch:normal;font-size:20.6272316px;line-height:125%;font-family:Gidole;-inkscape-font-specification:'Gidole, Normal';text-align:start;letter-spacing:-1.05833328px;writing-mode:lr-tb;text-anchor:start;fill:#296b96;fill-opacity:1;stroke-width:0.21486773px"
         id="path3661" />
      <path
         d="m 117.40524,150.27147 c -1.62158,0 -2.81006,0.80575 -3.43452,1.84315 -0.68489,1.15827 -0.69496,2.52805 -0.69496,3.70646 0,1.43021 0.0101,2.63883 0.69496,3.82732 0.60431,1.04747 1.84316,1.84315 3.43452,1.84315 1.26905,0 2.61869,-0.50359 3.51509,-1.10791 l -0.76547,-1.14819 c -0.68489,0.46331 -1.77265,0.90647 -2.74962,0.90647 -0.7554,0 -1.60143,-0.29209 -2.10503,-1.12805 -0.51367,-0.85611 -0.51367,-2.00431 -0.51367,-3.19279 0,-0.98705 0,-2.31654 0.56403,-3.14243 0.38273,-0.55396 0.9669,-1.05755 2.05467,-1.05755 0.94675,0 1.89351,0.41295 2.5784,0.85611 l 0.7151,-1.18848 c -0.85611,-0.53381 -2.02445,-1.01726 -3.2935,-1.01726 z"
         style="font-style:normal;font-variant:normal;font-weight:normal;font-stretch:normal;font-size:20.6272316px;line-height:125%;font-family:Gidole;-inkscape-font-specification:'Gidole, Normal';text-align:start;letter-spacing:-1.05833328px;writing-mode:lr-tb;text-anchor:start;fill:#296b96;fill-opacity:1;stroke-width:0.21486773px"
         id="path3663" />
    </g>
  </g>
</svg>
